<?xml version="1.0" encoding="UTF-8"?>
<svg width="77px" height="77px" viewBox="0 0 77 77" version="1.1" xmlns="http://www.w3.org/2000/svg" xmlns:xlink="http://www.w3.org/1999/xlink">
    <title>@0.5xGroup 2</title>
    <defs>
        <radialGradient cx="50%" cy="50%" fx="50%" fy="50%" r="100%" id="radialGradient-1">
            <stop stop-color="#F54F66" stop-opacity="0.323918269" offset="0%"></stop>
            <stop stop-color="#E72736" stop-opacity="0.282288024" offset="100%"></stop>
        </radialGradient>
        <linearGradient x1="14.645%" y1="14.645%" x2="85.355%" y2="85.355%" id="linearGradient-2">
            <stop stop-color="#F44F5A" offset="0%"></stop>
            <stop stop-color="#EE3D4A" offset="44.3%"></stop>
            <stop stop-color="#E52030" offset="100%"></stop>
        </linearGradient>
    </defs>
    <g id="Confirmed" stroke="none" stroke-width="1" fill="none" fill-rule="evenodd">
        <g id="Error-Handling-4" transform="translate(-169.000000, -270.000000)" fill-rule="nonzero">
            <g id="Group-10" transform="translate(20.000000, 250.000000)">
                <g id="Group-2" transform="translate(149.000000, 20.000000)">
                    <circle id="Oval" fill="url(#radialGradient-1)" opacity="0.127325149" cx="38.5" cy="38.5" r="38.5"></circle>
                    <g id="icons8-cancel" transform="translate(11.000000, 11.000000)">
                        <path d="M55,27.5 C55,42.686875 42.686875,55 27.5,55 C12.313125,55 0,42.686875 0,27.5 C0,12.313125 12.313125,0 27.5,0 C42.686875,0 55,12.313125 55,27.5 Z" id="Path" fill="url(#linearGradient-2)"></path>
                        <path d="M40.139,34.30625 L33.334125,27.5 L40.140375,20.69375 C41.21425,19.619875 41.21425,17.879125 40.140375,16.80525 L38.196125,14.861 C37.12225,13.787125 35.3815,13.787125 34.307625,14.861 L27.5,21.665875 L20.69375,14.859625 C19.619875,13.78575 17.879125,13.78575 16.80525,14.859625 L14.861,16.803875 C13.787125,17.87775 13.787125,19.6185 14.861,20.692375 L21.66725,27.498625 L14.861,34.304875 C13.787125,35.37875 13.787125,37.1195 14.861,38.193375 L16.80525,40.137625 C17.879125,41.2115 19.619875,41.2115 20.69375,40.137625 L27.5,33.331375 L34.30625,40.137625 C35.380125,41.2115 37.120875,41.2115 38.19475,40.137625 L40.139,38.193375 C41.212875,37.120875 41.212875,35.380125 40.139,34.30625 Z" id="Path" fill="#000000" opacity="0.05"></path>
                        <path d="M39.653625,34.791625 L32.362,27.5 L39.653625,20.208375 C40.459375,19.402625 40.459375,18.096375 39.653625,17.292 L37.709375,15.34775 C36.903625,14.542 35.597375,14.542 34.793,15.34775 L27.5,22.638 L20.208375,15.346375 C19.402625,14.540625 18.096375,14.540625 17.292,15.346375 L15.34775,17.290625 C14.542,18.096375 14.542,19.402625 15.34775,20.207 L22.638,27.5 L15.346375,34.791625 C14.540625,35.597375 14.540625,36.903625 15.346375,37.708 L17.290625,39.65225 C18.096375,40.458 19.402625,40.458 20.207,39.65225 L27.5,32.362 L34.791625,39.653625 C35.597375,40.459375 36.903625,40.459375 37.708,39.653625 L39.65225,37.709375 C40.459375,36.903625 40.459375,35.597375 39.653625,34.791625 Z" id="Path" fill="#000000" opacity="0.07"></path>
                        <path d="M37.222625,15.833125 L39.166875,17.777375 C39.7045,18.315 39.7045,19.185375 39.166875,19.721625 L19.721625,39.166875 C19.184,39.7045 18.313625,39.7045 17.777375,39.166875 L15.833125,37.222625 C15.2955,36.685 15.2955,35.814625 15.833125,35.278375 L35.278375,15.833125 C35.814625,15.2955 36.686375,15.2955 37.222625,15.833125 Z" id="Path" fill="#FFFFFF"></path>
                        <path d="M39.166875,37.222625 L37.222625,39.166875 C36.685,39.7045 35.814625,39.7045 35.278375,39.166875 L15.833125,19.721625 C15.2955,19.184 15.2955,18.313625 15.833125,17.777375 L17.777375,15.833125 C18.315,15.2955 19.185375,15.2955 19.721625,15.833125 L39.166875,35.278375 C39.7045,35.814625 39.7045,36.686375 39.166875,37.222625 Z" id="Path" fill="#FFFFFF"></path>
                    </g>
                </g>
            </g>
        </g>
    </g>
</svg>