<?xml version="1.0" encoding="UTF-8"?>
<svg width="77px" height="77px" viewBox="0 0 77 77" version="1.1" xmlns="http://www.w3.org/2000/svg" xmlns:xlink="http://www.w3.org/1999/xlink">
    <title>mdpi/activate</title>
    <defs>
        <radialGradient cx="50%" cy="50%" fx="50%" fy="50%" r="55.3044285%" id="radialGradient-1">
            <stop stop-color="#0A8645" offset="0%"></stop>
            <stop stop-color="#1C7D4B" offset="100%"></stop>
        </radialGradient>
        <linearGradient x1="14.645%" y1="14.645%" x2="85.355%" y2="85.355%" id="linearGradient-2">
            <stop stop-color="#21AD64" offset="0%"></stop>
            <stop stop-color="#088242" offset="100%"></stop>
        </linearGradient>
    </defs>
    <g id="Confirmed" stroke="none" stroke-width="1" fill="none" fill-rule="evenodd">
        <g id="Error-Handling-1" transform="translate(-169.000000, -314.000000)" fill-rule="nonzero">
            <g id="Group-10" transform="translate(40.000000, 294.000000)">
                <g id="activate" transform="translate(129.000000, 20.000000)">
                    <circle id="Oval" fill="url(#radialGradient-1)" opacity="0.067325" cx="38.5" cy="38.5" r="38.5"></circle>
                    <g id="icons8-ok" transform="translate(11.000000, 11.000000)">
                        <path d="M55,27.5 C55,42.686875 42.686875,55 27.5,55 C12.313125,55 0,42.686875 0,27.5 C0,12.313125 12.313125,0 27.5,0 C42.686875,0 55,12.313125 55,27.5 Z" id="Path" fill="url(#linearGradient-2)"></path>
                        <path d="M38.7365,16.7365 L24.75,30.723 L17.6385,23.6115 C16.564625,22.537625 14.823875,22.537625 13.75,23.6115 L11.80575,25.55575 C10.731875,26.629625 10.731875,28.370375 11.80575,29.44425 L22.80575,40.44425 C23.879625,41.518125 25.620375,41.518125 26.69425,40.44425 L44.56925,22.56925 C45.643125,21.495375 45.643125,19.754625 44.56925,18.68075 L42.625,16.7365 C41.551125,15.662625 39.810375,15.662625 38.7365,16.7365 Z" id="Path" fill="#000000" opacity="0.05"></path>
                        <path d="M23.291125,39.958875 L12.291125,28.958875 C11.485375,28.153125 11.485375,26.846875 12.291125,26.0425 L14.235375,24.09825 C15.041125,23.2925 16.347375,23.2925 17.15175,24.09825 L24.75,31.695125 L39.221875,17.22325 C40.027625,16.4175 41.333875,16.4175 42.13825,17.22325 L44.0825,19.1675 C44.88825,19.97325 44.88825,21.2795 44.0825,22.083875 L26.2075,39.958875 C25.403125,40.76325 24.096875,40.76325 23.291125,39.958875 Z" id="Path" fill="#000000" opacity="0.07"></path>
                        <path d="M23.777875,39.472125 L12.777875,28.472125 C12.24025,27.9345 12.24025,27.064125 12.777875,26.527875 L14.722125,24.583625 C15.25975,24.046 16.130125,24.046 16.666375,24.583625 L24.75,32.66725 L39.708625,17.708625 C40.24625,17.171 41.116625,17.171 41.652875,17.708625 L43.597125,19.652875 C44.13475,20.1905 44.13475,21.060875 43.597125,21.597125 L25.722125,39.472125 C25.185875,40.00975 24.314125,40.00975 23.777875,39.472125 Z" id="Path" fill="#FFFFFF"></path>
                    </g>
                </g>
            </g>
        </g>
    </g>
</svg>